<svg width="20" height="20" viewBox="0 0 20 20" fill="none" xmlns="http://www.w3.org/2000/svg">
<path fill-rule="evenodd" clip-rule="evenodd" d="M13.3333 10C13.3333 9.07989 13.0074 8.29432 12.3564 7.64332C11.7054 6.99231 10.9199 6.66642 9.99973 6.66642C9.07961 6.66642 8.29404 6.99231 7.64304 7.64332C6.99203 8.29432 6.66614 9.07989 6.66614 10C6.66614 10.9201 6.99203 11.7057 7.64304 12.3567C8.29404 13.0077 9.07961 13.3328 9.99973 13.3328C10.9199 13.3328 11.7054 13.0077 12.3564 12.3567C13.0074 11.7057 13.3333 10.9201 13.3333 10ZM15.1305 9.99994C15.1305 11.4233 14.6312 12.6343 13.6333 13.6322C12.6346 14.6309 11.4236 15.1302 10.0002 15.1302C8.57686 15.1302 7.36585 14.6309 6.36717 13.6322C5.36927 12.6343 4.86993 11.4233 4.86993 9.99994C4.86993 8.57581 5.36927 7.36479 6.36717 6.3669C7.36585 5.36822 8.57686 4.86966 10.0002 4.86966C11.4236 4.86966 12.6346 5.36822 13.6333 6.3669C14.6312 7.36479 15.1305 8.57581 15.1305 9.99994ZM16.5364 4.6612C16.5364 4.99099 16.4189 5.27332 16.1848 5.50743C15.9507 5.74155 15.6684 5.85899 15.3386 5.85899C15.0088 5.85899 14.7265 5.74155 14.4924 5.50743C14.2575 5.27332 14.1408 4.99099 14.1408 4.6612C14.1408 4.33142 14.2575 4.04909 14.4924 3.81497C14.7265 3.58008 15.0088 3.46341 15.3386 3.46341C15.6684 3.46341 15.9507 3.58008 16.1848 3.81497C16.4189 4.04909 16.5364 4.33142 16.5364 4.6612ZM10.0001 1.79682C9.93939 1.79682 9.60728 1.79449 9.00371 1.78982C8.40093 1.78593 7.94281 1.78593 7.63014 1.78982C7.31747 1.79449 6.89902 1.80771 6.37402 1.82949C5.84823 1.85127 5.40178 1.89405 5.03234 1.95938C4.66367 2.02471 4.35333 2.10483 4.10133 2.20049C3.66732 2.37394 3.28543 2.62594 2.95565 2.95572C2.62587 3.28551 2.37386 3.6674 2.20042 4.1014C2.10475 4.35341 2.02464 4.66374 1.9593 5.03241C1.89475 5.40108 1.85119 5.84831 1.82941 6.37332C1.80763 6.8991 1.79441 7.31755 1.79052 7.63022C1.78586 7.94289 1.78586 8.40023 1.79052 9.00379C1.79441 9.60735 1.79675 9.93947 1.79675 10.0001C1.79675 10.0608 1.79441 10.3929 1.79052 10.9957C1.78586 11.5993 1.78586 12.0574 1.79052 12.37C1.79441 12.6819 1.80763 13.1012 1.82941 13.6262C1.85119 14.1512 1.89475 14.5984 1.9593 14.9671C2.02464 15.3365 2.10475 15.6469 2.20042 15.8981C2.37386 16.3321 2.62587 16.7148 2.95565 17.0445C3.28543 17.3743 3.66732 17.6256 4.10133 17.7998C4.35333 17.8947 4.66367 17.9756 5.03234 18.0401C5.40178 18.1054 5.84823 18.149 6.37402 18.1708C6.89902 18.1926 7.31747 18.205 7.63014 18.2097C7.94281 18.2143 8.40093 18.2143 9.00371 18.2097C9.60728 18.205 9.93939 18.2034 10.0001 18.2034C10.0607 18.2034 10.3928 18.205 10.9964 18.2097C11.5992 18.2143 12.0573 18.2143 12.37 18.2097C12.6826 18.205 13.1011 18.1926 13.6261 18.1708C14.1519 18.149 14.5983 18.1054 14.9678 18.0401C15.3364 17.9756 15.6468 17.8947 15.8988 17.7998C16.3328 17.6256 16.7147 17.3743 17.0445 17.0445C17.3742 16.7148 17.6263 16.3321 17.7997 15.8981C17.8954 15.6469 17.9755 15.3365 18.0408 14.9671C18.1054 14.5984 18.1489 14.1512 18.1707 13.6262C18.1925 13.1012 18.2057 12.6819 18.2096 12.37C18.2143 12.0574 18.2143 11.5993 18.2096 10.9957C18.2057 10.3929 18.2034 10.0608 18.2034 10.0001C18.2034 9.93947 18.2057 9.60735 18.2096 9.00379C18.2143 8.40023 18.2143 7.94289 18.2096 7.63022C18.2057 7.31755 18.1925 6.8991 18.1707 6.37332C18.1489 5.84831 18.1054 5.40108 18.0408 5.03241C17.9755 4.66374 17.8954 4.35341 17.7997 4.1014C17.6263 3.6674 17.3742 3.28551 17.0445 2.95572C16.7147 2.62594 16.3328 2.37394 15.8988 2.20049C15.6468 2.10483 15.3364 2.02471 14.9678 1.95938C14.5983 1.89405 14.1519 1.85127 13.6261 1.82949C13.1011 1.80771 12.6826 1.79449 12.37 1.78982C12.0573 1.78593 11.5992 1.78593 10.9964 1.78982C10.3928 1.79449 10.0607 1.79682 10.0001 1.79682ZM20 10C20 11.988 19.9782 13.3631 19.9347 14.1277C19.8483 15.933 19.3101 17.3306 18.3208 18.32C17.3306 19.3101 15.933 19.8483 14.1277 19.9347C13.3639 19.9782 11.988 20 10 20C8.01198 20 6.63607 19.9782 5.87229 19.9347C4.06705 19.8483 2.66936 19.3101 1.67924 18.32C0.689897 17.3306 0.151668 15.933 0.0653341 14.1277C0.021778 13.3631 0 11.988 0 10C0 8.01198 0.021778 6.63607 0.0653341 5.87229C0.151668 4.06627 0.689897 2.66859 1.67924 1.67924C2.66936 0.689897 4.06705 0.151668 5.87229 0.0645563C6.63607 0.0210002 8.01198 0 10 0C11.988 0 13.3639 0.0210002 14.1277 0.0645563C15.933 0.151668 17.3306 0.689897 18.3208 1.67924C19.3101 2.66859 19.8483 4.06627 19.9347 5.87229C19.9782 6.63607 20 8.01198 20 10Z" fill="black"/>
</svg>
