<svg width="20" height="17" viewBox="0 0 20 17" fill="none" xmlns="http://www.w3.org/2000/svg">
<path fill-rule="evenodd" clip-rule="evenodd" d="M19.894 2.08686C19.333 2.90736 18.655 3.60636 17.86 4.18386C17.8682 4.30086 17.8727 4.47636 17.8727 4.71111C17.8727 5.79936 17.7137 6.88536 17.395 7.96911C17.077 9.05361 16.594 10.0931 15.9452 11.0891C15.2965 12.0859 14.524 12.9664 13.6285 13.7321C12.733 14.4986 11.653 15.1091 10.3892 15.5659C9.12545 16.0219 7.77321 16.2499 6.33396 16.2499C4.06521 16.2499 1.98921 15.6431 0.105957 14.4296C0.399207 14.4626 0.725457 14.4799 1.08546 14.4799C2.96871 14.4799 4.64721 13.9016 6.12021 12.7466C5.24121 12.7301 4.45446 12.4601 3.75996 11.9366C3.06471 11.4139 2.58771 10.7464 2.32821 9.93411C2.60496 9.97611 2.85996 9.99711 3.09396 9.99711C3.45396 9.99711 3.81021 9.95136 4.16121 9.85911C3.22371 9.66636 2.44746 9.19986 1.83246 8.45886C1.21746 7.71786 0.909207 6.85836 0.909207 5.87886V5.82861C1.47846 6.14661 2.08971 6.31836 2.74296 6.34311C2.19021 5.97486 1.75071 5.49336 1.42446 4.89936C1.09821 4.30536 0.934707 3.66036 0.934707 2.96586C0.934707 2.22936 1.11846 1.54686 1.48746 0.919108C2.49996 2.16636 3.73221 3.16461 5.18496 3.91386C6.63696 4.66311 8.19171 5.07936 9.84921 5.16336C9.78246 4.84536 9.74871 4.53561 9.74871 4.23411C9.74871 3.11211 10.1447 2.15586 10.9352 1.36461C11.7265 0.574108 12.6827 0.178108 13.8047 0.178108C14.9762 0.178108 15.964 0.605608 16.7672 1.45911C17.68 1.28361 18.538 0.956608 19.3412 0.479608C19.0315 1.44261 18.4375 2.18736 17.5585 2.71461C18.337 2.63136 19.1155 2.42211 19.894 2.08686Z" fill="black"/>
</svg>
